<svg width="340" height="100" viewBox="0 0 340 100" fill="none" xmlns="http://www.w3.org/2000/svg">
<path d="M224.886 45.9616V51.6892H221.295V55.4453H224.886V68.2077C224.886 72.5656 226.857 74.3088 231.817 74.3088C232.688 74.3088 233.518 74.205 234.245 74.0805V70.3659C233.622 70.4282 233.228 70.4697 232.543 70.4697C230.323 70.4697 229.347 69.4321 229.347 67.0664V55.4453H234.245V51.6892H229.347V45.9616H224.886Z" fill="white"/>
<path d="M246.879 74.6201C253.478 74.6201 257.525 70.1999 257.525 62.8745C257.525 55.5905 253.458 51.1496 246.879 51.1496C240.28 51.1496 236.213 55.5905 236.213 62.8745C236.213 70.1999 240.259 74.6201 246.879 74.6201ZM246.879 70.6564C242.999 70.6564 240.82 67.8134 240.82 62.8745C240.82 57.977 242.999 55.1132 246.879 55.1132C250.739 55.1132 252.939 57.977 252.939 62.8745C252.939 67.7927 250.739 70.6564 246.879 70.6564Z" fill="white"/>
<path d="M260.987 74.1843H265.449V60.8408C265.449 57.6657 267.835 55.5283 271.218 55.5283C272.007 55.5283 273.335 55.6735 273.708 55.798V51.3986C273.231 51.2741 272.38 51.2119 271.716 51.2119C268.769 51.2119 266.258 52.8305 265.615 55.051H265.283V51.5854H260.987V74.1843Z" fill="white"/>
<path d="M284.786 54.9472C288.086 54.9472 290.244 57.2507 290.348 60.7993H278.934C279.183 57.2714 281.487 54.9472 284.786 54.9472ZM290.327 68.0832C289.497 69.8471 287.65 70.8225 284.952 70.8225C281.383 70.8225 279.08 68.3115 278.934 64.3479V64.0988H294.893V62.5424C294.893 55.4453 291.095 51.1496 284.807 51.1496C278.436 51.1496 274.39 55.7358 274.39 62.9575C274.39 70.1791 278.353 74.6201 284.828 74.6201C289.995 74.6201 293.606 72.1298 294.623 68.0832H290.327Z" fill="white"/>
<path d="M195.627 65.8389C195.971 71.3881 200.595 74.9371 207.478 74.9371C214.834 74.9371 219.437 71.2161 219.437 65.2796C219.437 60.6122 216.813 58.0312 210.446 56.5471L207.026 55.7082C202.983 54.7618 201.348 53.4928 201.348 51.2774C201.348 48.4813 203.886 46.653 207.693 46.653C211.306 46.653 213.801 48.4383 214.253 51.2989H218.942C218.662 46.0723 214.06 42.3943 207.758 42.3943C200.982 42.3943 196.465 46.0723 196.465 51.6C196.465 56.1599 199.025 58.87 204.639 60.1821L208.639 61.15C212.748 62.1178 214.554 63.5374 214.554 65.9034C214.554 68.6565 211.715 70.6568 207.844 70.6568C203.692 70.6568 200.81 68.7856 200.401 65.8389H195.627Z" fill="white"/>
<path d="M149.408 51.2119C146.337 51.2119 143.681 52.7475 142.311 55.3208H141.979V51.5854H137.683V81.6965H142.145V70.7602H142.498C143.681 73.1467 146.233 74.5578 149.45 74.5578C155.157 74.5578 158.788 70.0546 158.788 62.8745C158.788 55.6943 155.157 51.2119 149.408 51.2119ZM148.142 70.5527C144.407 70.5527 142.062 67.6059 142.062 62.8952C142.062 58.1638 144.407 55.217 148.163 55.217C151.94 55.217 154.202 58.1015 154.202 62.8745C154.202 67.6682 151.94 70.5527 148.142 70.5527Z" fill="white"/>
<path d="M174.4 51.2119C171.329 51.2119 168.673 52.7475 167.303 55.3208H166.971V51.5854H162.675V81.6965H167.137V70.7602H167.49C168.673 73.1467 171.225 74.5578 174.442 74.5578C180.148 74.5578 183.78 70.0546 183.78 62.8745C183.78 55.6943 180.148 51.2119 174.4 51.2119ZM173.134 70.5527C169.399 70.5527 167.054 67.6059 167.054 62.8952C167.054 58.1638 169.399 55.217 173.155 55.217C176.932 55.217 179.194 58.1015 179.194 62.8745C179.194 67.6682 176.932 70.5527 173.134 70.5527Z" fill="white"/>
<path d="M129.678 74.1843H134.797L123.591 43.1471H118.408L107.202 74.1843H112.149L115.009 65.9464H126.839L129.678 74.1843ZM120.752 48.7824H121.118L125.613 61.9028H116.235L120.752 48.7824Z" fill="white"/>
<path d="M110.199 19.7367V34.7092H115.605C120.066 34.7092 122.65 31.9596 122.65 27.1763C122.65 22.4656 120.046 19.7367 115.605 19.7367H110.199ZM112.523 21.8534H115.345C118.448 21.8534 120.284 23.8248 120.284 27.2074C120.284 30.6418 118.479 32.5925 115.345 32.5925H112.523V21.8534Z" fill="white"/>
<path d="M130.563 34.9271C133.862 34.9271 135.885 32.717 135.885 29.0543C135.885 25.4124 133.852 23.1919 130.563 23.1919C127.263 23.1919 125.229 25.4124 125.229 29.0543C125.229 32.717 127.253 34.9271 130.563 34.9271ZM130.563 32.9453C128.622 32.9453 127.533 31.5238 127.533 29.0543C127.533 26.6056 128.622 25.1737 130.563 25.1737C132.493 25.1737 133.592 26.6056 133.592 29.0543C133.592 31.5134 132.493 32.9453 130.563 32.9453Z" fill="white"/>
<path d="M153.116 23.4098H150.885L148.872 32.0322H148.696L146.371 23.4098H144.234L141.91 32.0322H141.744L139.72 23.4098H137.458L140.571 34.7092H142.864L145.189 26.3877H145.365L147.7 34.7092H150.013L153.116 23.4098Z" fill="white"/>
<path d="M155.685 34.7092H157.916V28.0997C157.916 26.3358 158.964 25.236 160.614 25.236C162.263 25.236 163.052 26.1387 163.052 27.9545V34.7092H165.283V27.3942C165.283 24.7068 163.892 23.1919 161.371 23.1919C159.669 23.1919 158.549 23.9493 157.999 25.2048H157.833V23.4098H155.685V34.7092Z" fill="white"/>
<path d="M168.796 34.7092H171.027V19H168.796V34.7092Z" fill="white"/>
<path d="M179.417 34.9271C182.716 34.9271 184.74 32.717 184.74 29.0543C184.74 25.4124 182.706 23.1919 179.417 23.1919C176.117 23.1919 174.084 25.4124 174.084 29.0543C174.084 32.717 176.107 34.9271 179.417 34.9271ZM179.417 32.9453C177.477 32.9453 176.387 31.5238 176.387 29.0543C176.387 26.6056 177.477 25.1737 179.417 25.1737C181.347 25.1737 182.447 26.6056 182.447 29.0543C182.447 31.5134 181.347 32.9453 179.417 32.9453Z" fill="white"/>
<path d="M191.387 33.0179C190.173 33.0179 189.291 32.4265 189.291 31.4097C189.291 30.4136 189.996 29.8844 191.553 29.7806L194.313 29.6042V30.5485C194.313 31.9492 193.068 33.0179 191.387 33.0179ZM190.816 34.896C192.3 34.896 193.534 34.2527 194.209 33.1217H194.385V34.7092H196.533V26.9895C196.533 24.603 194.935 23.1919 192.103 23.1919C189.54 23.1919 187.714 24.437 187.485 26.3773H189.643C189.892 25.5784 190.754 25.1218 191.999 25.1218C193.524 25.1218 194.313 25.7963 194.313 26.9895V27.9648L191.252 28.1412C188.564 28.3073 187.049 29.4797 187.049 31.5134C187.049 33.5782 188.637 34.896 190.816 34.896Z" fill="white"/>
<path d="M204.103 34.896C205.66 34.896 206.978 34.1593 207.652 32.9246H207.828V34.7092H209.966V19H207.735V25.2048H207.569C206.957 23.9597 205.649 23.223 204.103 23.223C201.25 23.223 199.413 25.485 199.413 29.0543C199.413 32.634 201.229 34.896 204.103 34.896ZM204.736 25.2256C206.604 25.2256 207.776 26.7094 207.776 29.0647C207.776 31.4304 206.614 32.8934 204.736 32.8934C202.848 32.8934 201.717 31.4512 201.717 29.0543C201.717 26.6782 202.858 25.2256 204.736 25.2256Z" fill="white"/>
<path d="M224.432 34.9271C227.732 34.9271 229.755 32.717 229.755 29.0543C229.755 25.4124 227.721 23.1919 224.432 23.1919C221.132 23.1919 219.099 25.4124 219.099 29.0543C219.099 32.717 221.122 34.9271 224.432 34.9271ZM224.432 32.9453C222.492 32.9453 221.402 31.5238 221.402 29.0543C221.402 26.6056 222.492 25.1737 224.432 25.1737C226.362 25.1737 227.462 26.6056 227.462 29.0543C227.462 31.5134 226.362 32.9453 224.432 32.9453Z" fill="white"/>
<path d="M232.708 34.7092H234.939V28.0997C234.939 26.3358 235.987 25.236 237.636 25.236C239.286 25.236 240.075 26.1387 240.075 27.9545V34.7092H242.306V27.3942C242.306 24.7068 240.915 23.1919 238.394 23.1919C236.692 23.1919 235.572 23.9493 235.022 25.2048H234.856V23.4098H232.708V34.7092Z" fill="white"/>
<path d="M252.58 20.5979V23.4617H250.785V25.3397H252.58V31.7209C252.58 33.8999 253.566 34.7715 256.046 34.7715C256.481 34.7715 256.896 34.7196 257.26 34.6573V32.8C256.948 32.8312 256.751 32.8519 256.409 32.8519C255.298 32.8519 254.811 32.3331 254.811 31.1503V25.3397H257.26V23.4617H254.811V20.5979H252.58Z" fill="white"/>
<path d="M260.254 34.7092H262.485V28.1101C262.485 26.3981 263.502 25.2463 265.328 25.2463C266.905 25.2463 267.745 26.1594 267.745 27.9648V34.7092H269.976V27.4149C269.976 24.7275 268.493 23.2023 266.085 23.2023C264.384 23.2023 263.19 23.9597 262.641 25.2256H262.464V19H260.254V34.7092Z" fill="white"/>
<path d="M278.024 25.0907C279.674 25.0907 280.753 26.2424 280.805 28.0167H275.098C275.222 26.2528 276.374 25.0907 278.024 25.0907ZM280.794 31.6587C280.379 32.5406 279.456 33.0283 278.107 33.0283C276.322 33.0283 275.171 31.7728 275.098 29.791V29.6665H283.077V28.8883C283.077 25.3397 281.178 23.1919 278.034 23.1919C274.849 23.1919 272.826 25.485 272.826 29.0958C272.826 32.7067 274.807 34.9271 278.045 34.9271C280.628 34.9271 282.434 33.682 282.942 31.6587H280.794Z" fill="white"/>
<path d="M82.9933 48.7114C83.0474 44.5089 85.3043 40.5324 88.8847 38.3312C86.626 35.1054 82.8428 33.0602 78.9068 32.937C74.7087 32.4964 70.6388 35.4491 68.4995 35.4491C66.3189 35.4491 63.0251 32.9808 59.4783 33.0538C54.8551 33.2031 50.5452 35.8316 48.296 39.8734C43.461 48.2445 47.0675 60.5471 51.699 67.3136C54.0162 70.627 56.7244 74.3281 60.2681 74.1969C63.7357 74.0531 65.0308 71.9857 69.2166 71.9857C73.3635 71.9857 74.5785 74.1969 78.1941 74.1134C81.915 74.053 84.2594 70.7853 86.4953 67.4406C88.1603 65.0797 89.4414 62.4704 90.2914 59.7093C85.9186 57.8598 82.9984 53.4592 82.9933 48.7114Z" fill="white"/>
<path d="M76.1641 28.487C78.1929 26.0515 79.1925 22.9211 78.9504 19.7605C75.8508 20.086 72.9877 21.5674 70.9315 23.9095C68.9208 26.1979 67.8744 29.2732 68.0722 32.313C71.1729 32.3449 74.2211 30.9037 76.1641 28.487Z" fill="white"/>
</svg>
