<svg width="340" height="100" viewBox="0 0 340 100" fill="none" xmlns="http://www.w3.org/2000/svg">
<path d="M266.94 75H271.599V43.746H266.94V75ZM308.896 55.005L303.556 68.5548H303.396L297.855 55.005H292.837L301.15 73.9425L296.409 84.4776H301.267L314.076 55.005H308.896ZM282.477 71.4503C280.955 71.4503 278.825 70.6855 278.825 68.796C278.825 66.3838 281.476 65.459 283.763 65.459C285.81 65.459 286.776 65.9005 288.019 66.504C287.657 69.3995 285.168 71.4503 282.477 71.4503ZM283.042 54.3213C279.669 54.3213 276.177 55.8095 274.731 59.1065L278.865 60.835C279.749 59.1065 281.394 58.544 283.121 58.544C285.53 58.544 287.979 59.9903 288.019 62.5645V62.8858C287.175 62.4033 285.368 61.6798 283.161 61.6798C278.703 61.6798 274.167 64.1318 274.167 68.7158C274.167 72.8975 277.822 75.5918 281.916 75.5918C285.046 75.5918 286.776 74.1845 287.857 72.5353H288.019V74.9493H292.517V62.9658C292.517 57.417 288.379 54.3213 283.042 54.3213ZM254.254 58.8095H247.629V48.0968H254.254C257.737 48.0968 259.714 50.9835 259.714 53.453C259.714 55.875 257.737 58.8095 254.254 58.8095ZM254.134 43.746H242.973V75H247.629V63.1593H254.134C259.297 63.1593 264.372 59.417 264.372 53.453C264.372 47.4903 259.297 43.746 254.134 43.746ZM193.271 71.456C190.053 71.456 187.36 68.7568 187.36 65.0528C187.36 61.3058 190.053 58.5683 193.271 58.5683C196.448 58.5683 198.942 61.3058 198.942 65.0528C198.942 68.7568 196.448 71.456 193.271 71.456ZM198.62 56.755H198.459C197.414 55.5068 195.402 54.379 192.87 54.379C187.56 54.379 182.694 59.0518 182.694 65.0528C182.694 71.0128 187.56 75.6445 192.87 75.6445C195.402 75.6445 197.414 74.5165 198.459 73.2285H198.62V74.7578C198.62 78.8272 196.448 81.001 192.949 81.001C190.095 81.001 188.326 78.9473 187.601 77.2158L183.54 78.9072C184.705 81.7256 187.801 85.1904 192.949 85.1904C198.42 85.1904 203.045 81.9678 203.045 74.1133V55.0235H198.62V56.755ZM206.263 75H210.926V43.746H206.263V75ZM217.803 64.6895C217.683 60.581 220.982 58.4873 223.354 58.4873C225.204 58.4873 226.771 59.414 227.296 60.7423L217.803 64.6895ZM232.281 61.1445C231.396 58.7695 228.702 54.379 223.193 54.379C217.722 54.379 213.178 58.6885 213.178 65.0118C213.178 70.9728 217.683 75.6445 223.714 75.6445C228.58 75.6445 231.396 72.665 232.563 70.9325L228.944 68.5155C227.737 70.288 226.089 71.456 223.714 71.456C221.343 71.456 219.653 70.3683 218.569 68.2335L232.763 62.3535L232.281 61.1445ZM119.179 57.6415V62.1523H129.957C129.635 64.6895 128.791 66.542 127.504 67.831C125.935 69.4013 123.481 71.1338 119.179 71.1338C112.543 71.1338 107.356 65.7773 107.356 59.1318C107.356 52.4863 112.543 47.129 119.179 47.129C122.759 47.129 125.372 48.539 127.303 50.3515L130.481 47.169C127.785 44.5918 124.207 42.6183 119.179 42.6183C110.089 42.6183 102.448 50.0293 102.448 59.1318C102.448 68.2335 110.089 75.6445 119.179 75.6445C124.085 75.6445 127.785 74.0333 130.681 71.0128C133.657 68.0323 134.582 63.8438 134.582 60.46C134.582 59.414 134.501 58.4473 134.34 57.6415H119.179ZM146.835 71.456C143.617 71.456 140.842 68.7978 140.842 65.0118C140.842 61.1855 143.617 58.5683 146.835 58.5683C150.052 58.5683 152.827 61.1855 152.827 65.0118C152.827 68.7978 150.052 71.456 146.835 71.456ZM146.835 54.379C140.962 54.379 136.177 58.8495 136.177 65.0118C136.177 71.1338 140.962 75.6445 146.835 75.6445C152.706 75.6445 157.492 71.1338 157.492 65.0118C157.492 58.8495 152.706 54.379 146.835 54.379ZM170.083 71.456C166.867 71.456 164.091 68.7978 164.091 65.0118C164.091 61.1855 166.867 58.5683 170.083 58.5683C173.301 58.5683 176.075 61.1855 176.075 65.0118C176.075 68.7978 173.301 71.456 170.083 71.456ZM170.083 54.379C164.212 54.379 159.427 58.8495 159.427 65.0118C159.427 71.1338 164.212 75.6445 170.083 75.6445C175.956 75.6445 180.741 71.1338 180.741 65.0118C180.741 58.8495 175.956 54.379 170.083 54.379Z" fill="white"/>
<path d="M111.028 33.0859C108.79 33.0859 106.865 32.2973 105.313 30.7431C103.76 29.188 102.974 27.2408 102.974 24.9765C102.974 22.7123 103.76 20.7686 105.313 19.2099C106.865 17.6556 108.79 16.8672 111.028 16.8672C112.168 16.8672 113.232 17.0644 114.249 17.4751C115.267 17.8858 116.099 18.456 116.754 19.2021L116.909 19.3784L115.163 21.1264L114.989 20.9116C114.554 20.3767 114.001 19.9612 113.301 19.6592C112.603 19.3579 111.838 19.2187 111.028 19.2187C109.452 19.2187 108.144 19.7548 107.052 20.8447C107.051 20.845 107.051 20.8449 107.051 20.8452C105.983 21.9571 105.447 23.3108 105.447 24.9766C105.447 26.6436 105.984 27.9976 107.053 29.1099C108.145 30.1993 109.453 30.7383 111.028 30.7383C112.471 30.7383 113.665 30.3349 114.603 29.5361H114.603C115.477 28.7928 116.001 27.7883 116.186 26.5078H110.778V24.2031H118.524L118.557 24.4141C118.62 24.8192 118.665 25.2103 118.665 25.5859C118.665 27.7364 118.011 29.4918 116.726 30.7832C115.276 32.3225 113.37 33.0859 111.028 33.0859L111.028 33.0859ZM178.283 33.0859C176.041 33.0859 174.139 32.2969 172.607 30.7431C172.606 30.743 172.606 30.7429 172.606 30.7427C172.606 30.7425 172.606 30.7424 172.606 30.7421C171.071 29.2052 170.31 27.2575 170.31 24.9765C170.31 22.6956 171.071 20.7479 172.606 19.2109C172.606 19.2107 172.606 19.2107 172.606 19.2104L172.607 19.2099C174.139 17.6559 176.041 16.8671 178.283 16.8671C180.52 16.8671 182.423 17.6561 183.955 19.2333C185.49 20.7701 186.251 22.7141 186.251 24.9765C186.251 27.2575 185.49 29.2051 183.956 30.7421L183.956 30.7426C182.423 32.2975 180.502 33.0859 178.283 33.0859L178.283 33.0859ZM120.882 32.75V17.2031H121.131H130.153V19.5547H123.312V23.8242H129.482V26.1289H123.312V30.4023H130.153V32.75H120.882ZM135.827 32.75V19.5547H131.63V17.2031H142.454V19.5547H142.204H138.257V32.75H135.827ZM149.372 32.75V17.2031H151.802V17.4531V32.75H149.372ZM157.918 32.75V19.5547H153.722V17.2031H164.545V19.5547H164.296H160.348V32.75H157.918ZM188.408 32.75V17.2031H191.148L198.122 28.3838L198.062 26.2612V17.2031H200.492V32.75H198.087L190.778 21.0044L190.838 23.1255V23.1289V32.75H188.408ZM178.283 30.7383C179.859 30.7383 181.146 30.1998 182.195 29.1118L182.196 29.1098L182.198 29.1083C183.262 28.0425 183.783 26.6705 183.783 24.9765C183.783 23.2865 183.262 21.9099 182.198 20.8446L182.196 20.8431L182.195 20.8416C181.146 19.7538 179.86 19.2186 178.283 19.2186C176.703 19.2186 175.417 19.7529 174.348 20.8407L174.347 20.8417C173.303 21.9328 172.783 23.287 172.783 24.9764C172.783 26.67 173.303 28.0198 174.347 29.1112L174.348 29.1122C175.417 30.2002 176.704 30.7382 178.283 30.7382V30.7383Z" fill="white"/>
<path d="M59.8217 48.7089L33.2449 76.959C33.2459 76.9648 33.2479 76.9697 33.2489 76.9756C34.0639 80.043 36.8615 82.3018 40.1818 82.3018C41.5091 82.3018 42.7553 81.9424 43.8239 81.3115L43.9088 81.2617L73.8244 63.9737L59.8217 48.7089Z" fill="#EA4335"/>
<path d="M86.7095 43.8985L86.684 43.881L73.7687 36.3827L59.218 49.3497L73.8194 63.9707L86.6665 56.547C88.919 55.3292 90.4479 52.9512 90.4479 50.209C90.4479 47.4865 88.9394 45.1202 86.7095 43.8985Z" fill="#FBBC04"/>
<path d="M33.2439 23.3417C33.0841 23.9317 33.0001 24.5497 33.0001 25.1914V75.1104C33.0001 75.751 33.0831 76.3711 33.2449 76.959L60.7363 49.4317L33.2439 23.3417Z" fill="#4285F4"/>
<path d="M60.0177 50.1505L73.7738 36.378L43.8921 19.0275C42.806 18.376 41.5383 18 40.1819 18C36.8615 18 34.0602 20.2628 33.2449 23.334C33.2439 23.337 33.2439 23.339 33.2439 23.3418L60.0177 50.1505Z" fill="#34A853"/>
</svg>
